<?xml version="1.0" encoding="UTF-8"?>
<svg xmlns="http://www.w3.org/2000/svg" xmlns:xlink="http://www.w3.org/1999/xlink" width="100pt" height="100pt" viewBox="0 0 100 100" version="1.1">
<g id="surface1077656">
<path style=" stroke:none;fill-rule:nonzero;fill:rgb(0%,0%,0%);fill-opacity:1;" d="M 46 13 C 44.355469 13 43 14.355469 43 16 L 43 18 L 32.265625 18 C 30.511719 18 28.878906 18.921875 27.976562 20.425781 L 26.433594 23 L 23 23 C 20.800781 23 19 24.800781 19 27 C 19 29.199219 20.800781 31 23 31 L 24.074219 31 L 27.648438 77.457031 C 27.886719 80.574219 30.503906 83 33.632812 83 L 66.371094 83 C 69.496094 83 72.113281 80.574219 72.351562 77.457031 L 75.925781 31 L 77 31 C 79.199219 31 81 29.199219 81 27 C 81 24.800781 79.199219 23 77 23 L 73.566406 23 L 72.023438 20.425781 C 71.121094 18.921875 69.488281 18 67.734375 18 L 57 18 L 57 16 C 57 14.355469 55.644531 13 54 13 Z M 46 15 L 54 15 C 54.566406 15 55 15.433594 55 16 L 55 18 L 45 18 L 45 16 C 45 15.433594 45.433594 15 46 15 Z M 32.265625 20 L 43.832031 20 C 43.941406 20.019531 44.050781 20.019531 44.160156 20 L 55.832031 20 C 55.941406 20.019531 56.050781 20.019531 56.160156 20 L 67.734375 20 C 68.789062 20 69.761719 20.550781 70.308594 21.457031 L 71.835938 24 L 68.5 24 C 68.320312 23.996094 68.152344 24.09375 68.0625 24.246094 C 67.96875 24.402344 67.96875 24.597656 68.0625 24.753906 C 68.152344 24.90625 68.320312 25.003906 68.5 25 L 77 25 C 78.117188 25 79 25.882812 79 27 C 79 28.117188 78.117188 29 77 29 L 23 29 C 21.882812 29 21 28.117188 21 27 C 21 25.882812 21.882812 25 23 25 L 61.5 25 C 61.679688 25.003906 61.847656 24.90625 61.9375 24.753906 C 62.03125 24.597656 62.03125 24.402344 61.9375 24.246094 C 61.847656 24.09375 61.679688 23.996094 61.5 24 L 28.167969 24 L 29.695312 21.457031 C 30.238281 20.550781 31.210938 20 32.265625 20 Z M 64.5 24 C 64.320312 23.996094 64.152344 24.09375 64.0625 24.246094 C 63.96875 24.402344 63.96875 24.597656 64.0625 24.753906 C 64.152344 24.90625 64.320312 25.003906 64.5 25 L 66.5 25 C 66.679688 25.003906 66.847656 24.90625 66.9375 24.753906 C 67.03125 24.597656 67.03125 24.402344 66.9375 24.246094 C 66.847656 24.09375 66.679688 23.996094 66.5 24 Z M 26.078125 31 L 73.921875 31 L 70.359375 77.304688 C 70.195312 79.398438 68.46875 81 66.371094 81 L 33.632812 81 C 31.53125 81 29.804688 79.398438 29.644531 77.304688 Z M 38 35 C 36.347656 35 35 36.347656 35 38 L 35 73 C 35 74.652344 36.347656 76 38 76 C 39.652344 76 41 74.652344 41 73 L 41 38 C 41 36.347656 39.652344 35 38 35 Z M 50 35 C 48.347656 35 47 36.347656 47 38 L 47 73 C 47 74.652344 48.347656 76 50 76 C 51.652344 76 53 74.652344 53 73 L 53 69.5 C 53.003906 69.320312 52.90625 69.152344 52.753906 69.0625 C 52.597656 68.96875 52.402344 68.96875 52.246094 69.0625 C 52.09375 69.152344 51.996094 69.320312 52 69.5 L 52 73 C 52 74.109375 51.109375 75 50 75 C 48.890625 75 48 74.109375 48 73 L 48 38 C 48 36.890625 48.890625 36 50 36 C 51.109375 36 52 36.890625 52 38 L 52 63.5 C 51.996094 63.679688 52.09375 63.847656 52.246094 63.9375 C 52.402344 64.03125 52.597656 64.03125 52.753906 63.9375 C 52.90625 63.847656 53.003906 63.679688 53 63.5 L 53 38 C 53 36.347656 51.652344 35 50 35 Z M 62 35 C 60.347656 35 59 36.347656 59 38 L 59 39.5 C 58.996094 39.679688 59.09375 39.847656 59.246094 39.9375 C 59.402344 40.03125 59.597656 40.03125 59.753906 39.9375 C 59.90625 39.847656 60.003906 39.679688 60 39.5 L 60 38 C 60 36.890625 60.890625 36 62 36 C 63.109375 36 64 36.890625 64 38 L 64 73 C 64 74.109375 63.109375 75 62 75 C 60.890625 75 60 74.109375 60 73 L 60 47.5 C 60.003906 47.320312 59.90625 47.152344 59.753906 47.0625 C 59.597656 46.96875 59.402344 46.96875 59.246094 47.0625 C 59.09375 47.152344 58.996094 47.320312 59 47.5 L 59 73 C 59 74.652344 60.347656 76 62 76 C 63.652344 76 65 74.652344 65 73 L 65 38 C 65 36.347656 63.652344 35 62 35 Z M 38 36 C 39.109375 36 40 36.890625 40 38 L 40 73 C 40 74.109375 39.109375 75 38 75 C 36.890625 75 36 74.109375 36 73 L 36 38 C 36 36.890625 36.890625 36 38 36 Z M 59.492188 41.992188 C 59.359375 41.996094 59.234375 42.050781 59.140625 42.144531 C 59.046875 42.238281 58.996094 42.367188 59 42.5 L 59 44.5 C 58.996094 44.679688 59.09375 44.847656 59.246094 44.9375 C 59.402344 45.03125 59.597656 45.03125 59.753906 44.9375 C 59.90625 44.847656 60.003906 44.679688 60 44.5 L 60 42.5 C 60.003906 42.363281 59.949219 42.234375 59.855469 42.136719 C 59.757812 42.042969 59.628906 41.988281 59.492188 41.992188 Z M 59.492188 41.992188 "/>
</g>
</svg>
